<svg xmlns="http://www.w3.org/2000/svg" enable-background="new 0 0 512 512" viewBox="0 0 512 640" x="0px" y="0px"><g><g><path d="m261.312 46.156v-30.407c0-2.934-2.376-5.312-5.312-5.312s-5.312 2.378-5.312 5.312v30.407c0 2.934 2.376 5.312 5.312 5.312s5.312-2.378 5.312-5.312z"/><path d="m129.715 85.306c2.542-1.468 3.413-4.715 1.945-7.257l-15.199-26.334c-1.473-2.542-4.731-3.408-7.257-1.945-2.542 1.468-3.413 4.715-1.945 7.257l15.199 26.334c1.477 2.553 4.735 3.402 7.257 1.945z"/><path d="m8.991 155.291c-2.542-1.471-5.789-.599-7.257 1.945-1.468 2.542-.597 5.789 1.945 7.257l26.337 15.205c2.524 1.458 5.78.608 7.257-1.945 1.468-2.542.597-5.789-1.945-7.257z"/><path d="m481.989 179.698 26.332-15.205c2.542-1.468 3.413-4.718 1.945-7.257-1.473-2.544-4.726-3.416-7.257-1.945l-26.332 15.205c-2.542 1.468-3.413 4.718-1.945 7.257 1.477 2.554 4.735 3.402 7.257 1.945z"/><path d="m389.542 83.361 15.205-26.334c1.468-2.542.597-5.789-1.945-7.257-2.537-1.463-5.789-.597-7.257 1.945l-15.205 26.334c-1.468 2.542-.597 5.789 1.945 7.257 2.524 1.458 5.78.608 7.257-1.945z"/><path d="m460.718 210.955-50.039-78.459c-.849-1.328-2.55-2.496-4.461-2.496-21.09 0-17.902 0-48.606 0h-251.789c-3.028 0-4.037 2.125-4.622 2.709-28.791 45.099-41.275 64.701-46.161 72.35 0 0 0 .053-.053.053-.106.266-.319.478-.425.69-.052.053-.052.106-.106.16-.211.319-.477.691-.743 1.168-.053.053-.053.106-.106.16-.213.319-.424.691-.69 1.116-.106.159-.16.212-.213.318s-.106.16-.213.319c0 .053-.053.106-.053.106-.053.053-.053.053-.053.106-.372.53-.691 1.062-1.115 1.7-1.115 1.753-1.009 4.302.16 5.896l200.26 282.494c0 .053.053.053.053.106 2.018 2.762 6.374 2.869 8.5 0 .584-.796 199.944-282.015 200.316-282.599 1.222-1.648 1.275-4.144.159-5.897zm-264.485-70.331-40.372 63.266-40.319-63.266zm-130.198 78.511h86.108l86.055 242.866zm99.548-10.624 40.371-63.266 40.319 63.266zm230.913-67.887-40.372 63.266-40.371-63.266zm-90.41 4.621 40.319 63.266h-80.691zm-32.298 316.756 86.108-242.866h86.056z"/></g></g><text x="0" y="527" fill="#000000" font-size="5px" font-weight="bold" font-family="'Helvetica Neue', Helvetica, Arial-Unicode, Arial, Sans-serif">Created by dian sastro</text><text x="0" y="532" fill="#000000" font-size="5px" font-weight="bold" font-family="'Helvetica Neue', Helvetica, Arial-Unicode, Arial, Sans-serif">from the Noun Project</text></svg>