<svg width="78" height="16" viewBox="0 0 78 16" fill="none" xmlns="http://www.w3.org/2000/svg">
<path d="M6.72 12.096C5.87733 12.096 5.09333 11.9573 4.368 11.68C3.65333 11.392 3.02933 10.992 2.496 10.48C1.97333 9.95733 1.56267 9.35467 1.264 8.672C0.976 7.97867 0.832 7.22133 0.832 6.4C0.832 5.57867 0.976 4.82667 1.264 4.144C1.56267 3.45067 1.97333 2.848 2.496 2.336C3.02933 1.81333 3.65333 1.41333 4.368 1.136C5.08267 0.848 5.86667 0.704 6.72 0.704C7.56267 0.704 8.34133 0.848 9.056 1.136C9.77067 1.41333 10.3893 1.808 10.912 2.32C11.4453 2.832 11.856 3.43467 12.144 4.128C12.4427 4.82133 12.592 5.57867 12.592 6.4C12.592 7.22133 12.4427 7.97867 12.144 8.672C11.856 9.36533 11.4453 9.968 10.912 10.48C10.3893 10.992 9.77067 11.392 9.056 11.68C8.34133 11.9573 7.56267 12.096 6.72 12.096ZM6.72 11.04C7.392 11.04 8.01067 10.928 8.576 10.704C9.152 10.4693 9.648 10.144 10.064 9.728C10.4907 9.30133 10.8213 8.81067 11.056 8.256C11.2907 7.69067 11.408 7.072 11.408 6.4C11.408 5.728 11.2907 5.11467 11.056 4.56C10.8213 3.99467 10.4907 3.504 10.064 3.088C9.648 2.66133 9.152 2.336 8.576 2.112C8.01067 1.87733 7.392 1.76 6.72 1.76C6.048 1.76 5.424 1.87733 4.848 2.112C4.272 2.336 3.77067 2.66133 3.344 3.088C2.928 3.504 2.59733 3.99467 2.352 4.56C2.11733 5.11467 2 5.728 2 6.4C2 7.06133 2.11733 7.67467 2.352 8.24C2.59733 8.80533 2.928 9.30133 3.344 9.728C3.77067 10.144 4.272 10.4693 4.848 10.704C5.424 10.928 6.048 11.04 6.72 11.04ZM19.3419 12.08C18.6165 12.08 17.9605 11.9147 17.3739 11.584C16.7872 11.2427 16.3179 10.7573 15.9659 10.128C15.6245 9.488 15.4539 8.70933 15.4539 7.792C15.4539 6.87467 15.6245 6.10133 15.9659 5.472C16.3072 4.832 16.7712 4.34667 17.3579 4.016C17.9445 3.68533 18.6059 3.52 19.3419 3.52C20.1419 3.52 20.8565 3.70133 21.4859 4.064C22.1259 4.416 22.6272 4.91733 22.9899 5.568C23.3525 6.208 23.5339 6.94933 23.5339 7.792C23.5339 8.64533 23.3525 9.392 22.9899 10.032C22.6272 10.672 22.1259 11.1733 21.4859 11.536C20.8565 11.8987 20.1419 12.08 19.3419 12.08ZM15.0059 15.104V3.6H16.0939V6.128L15.9819 7.808L16.1419 9.504V15.104H15.0059ZM19.2619 11.072C19.8592 11.072 20.3925 10.9387 20.8619 10.672C21.3312 10.3947 21.7045 10.0107 21.9819 9.52C22.2592 9.01867 22.3979 8.44267 22.3979 7.792C22.3979 7.14133 22.2592 6.57067 21.9819 6.08C21.7045 5.58933 21.3312 5.20533 20.8619 4.928C20.3925 4.65067 19.8592 4.512 19.2619 4.512C18.6645 4.512 18.1259 4.65067 17.6459 4.928C17.1765 5.20533 16.8032 5.58933 16.5259 6.08C16.2592 6.57067 16.1259 7.14133 16.1259 7.792C16.1259 8.44267 16.2592 9.01867 16.5259 9.52C16.8032 10.0107 17.1765 10.3947 17.6459 10.672C18.1259 10.9387 18.6645 11.072 19.2619 11.072ZM29.3216 12.08C28.607 12.08 27.983 11.9467 27.4496 11.68C26.9163 11.4133 26.5003 11.0133 26.2016 10.48C25.9136 9.94667 25.7696 9.28 25.7696 8.48V3.6H26.9056V8.352C26.9056 9.248 27.1243 9.92533 27.5616 10.384C28.0096 10.832 28.6336 11.056 29.4336 11.056C30.0203 11.056 30.527 10.9387 30.9536 10.704C31.391 10.4587 31.7216 10.1067 31.9456 9.648C32.1803 9.18933 32.2976 8.64 32.2976 8V3.6H33.4336V12H32.3456V9.696L32.5216 10.112C32.255 10.7307 31.839 11.216 31.2736 11.568C30.719 11.9093 30.0683 12.08 29.3216 12.08ZM36.5996 12V0.127999H37.7356V12H36.5996ZM44.4645 12.08C43.5898 12.08 42.8218 11.8987 42.1605 11.536C41.4992 11.1627 40.9818 10.656 40.6085 10.016C40.2352 9.36533 40.0485 8.624 40.0485 7.792C40.0485 6.96 40.2245 6.224 40.5765 5.584C40.9392 4.944 41.4298 4.44267 42.0485 4.08C42.6778 3.70667 43.3818 3.52 44.1605 3.52C44.9498 3.52 45.6485 3.70133 46.2565 4.064C46.8752 4.416 47.3605 4.91733 47.7125 5.568C48.0645 6.208 48.2405 6.94933 48.2405 7.792C48.2405 7.84533 48.2352 7.904 48.2245 7.968C48.2245 8.02133 48.2245 8.08 48.2245 8.144H40.9125V7.296H47.6165L47.1685 7.632C47.1685 7.024 47.0352 6.48533 46.7685 6.016C46.5125 5.536 46.1605 5.16267 45.7125 4.896C45.2645 4.62933 44.7472 4.496 44.1605 4.496C43.5845 4.496 43.0672 4.62933 42.6085 4.896C42.1498 5.16267 41.7925 5.536 41.5365 6.016C41.2805 6.496 41.1525 7.04533 41.1525 7.664V7.84C41.1525 8.48 41.2912 9.04533 41.5685 9.536C41.8565 10.016 42.2512 10.3947 42.7525 10.672C43.2645 10.9387 43.8458 11.072 44.4965 11.072C45.0085 11.072 45.4832 10.9813 45.9205 10.8C46.3685 10.6187 46.7525 10.3413 47.0725 9.968L47.7125 10.704C47.3392 11.152 46.8698 11.4933 46.3045 11.728C45.7498 11.9627 45.1365 12.08 44.4645 12.08ZM54.8408 3.52C55.5234 3.52 56.1208 3.65333 56.6328 3.92C57.1554 4.176 57.5608 4.57067 57.8488 5.104C58.1474 5.63733 58.2968 6.30933 58.2968 7.12V12H57.1608V7.232C57.1608 6.34667 56.9368 5.68 56.4888 5.232C56.0514 4.77333 55.4328 4.544 54.6328 4.544C54.0354 4.544 53.5128 4.66667 53.0648 4.912C52.6274 5.14667 52.2861 5.49333 52.0408 5.952C51.8061 6.4 51.6888 6.944 51.6888 7.584V12H50.5528V3.6H51.6408V5.904L51.4648 5.472C51.7314 4.864 52.1581 4.38933 52.7448 4.048C53.3314 3.696 54.0301 3.52 54.8408 3.52ZM64.8533 12.08C64.0213 12.08 63.2746 11.8987 62.6133 11.536C61.9626 11.1627 61.4506 10.656 61.0773 10.016C60.7039 9.36533 60.5173 8.624 60.5173 7.792C60.5173 6.94933 60.7039 6.208 61.0773 5.568C61.4506 4.928 61.9626 4.42667 62.6133 4.064C63.2746 3.70133 64.0213 3.52 64.8533 3.52C65.5679 3.52 66.2133 3.65867 66.7893 3.936C67.3653 4.21333 67.8186 4.62933 68.1493 5.184L67.3013 5.76C67.0133 5.33333 66.6559 5.01867 66.2293 4.816C65.8026 4.61333 65.3386 4.512 64.8373 4.512C64.2399 4.512 63.7013 4.65067 63.2213 4.928C62.7413 5.19467 62.3626 5.57333 62.0853 6.064C61.8079 6.55467 61.6693 7.13067 61.6693 7.792C61.6693 8.45333 61.8079 9.02933 62.0853 9.52C62.3626 10.0107 62.7413 10.3947 63.2213 10.672C63.7013 10.9387 64.2399 11.072 64.8373 11.072C65.3386 11.072 65.8026 10.9707 66.2293 10.768C66.6559 10.5653 67.0133 10.256 67.3013 9.84L68.1493 10.416C67.8186 10.96 67.3653 11.376 66.7893 11.664C66.2133 11.9413 65.5679 12.08 64.8533 12.08ZM73.8083 12.08C72.9336 12.08 72.1656 11.8987 71.5043 11.536C70.8429 11.1627 70.3256 10.656 69.9523 10.016C69.5789 9.36533 69.3923 8.624 69.3923 7.792C69.3923 6.96 69.5683 6.224 69.9203 5.584C70.2829 4.944 70.7736 4.44267 71.3923 4.08C72.0216 3.70667 72.7256 3.52 73.5043 3.52C74.2936 3.52 74.9923 3.70133 75.6003 4.064C76.2189 4.416 76.7043 4.91733 77.0563 5.568C77.4083 6.208 77.5843 6.94933 77.5843 7.792C77.5843 7.84533 77.5789 7.904 77.5683 7.968C77.5683 8.02133 77.5683 8.08 77.5683 8.144H70.2563V7.296H76.9603L76.5123 7.632C76.5123 7.024 76.3789 6.48533 76.1123 6.016C75.8563 5.536 75.5043 5.16267 75.0563 4.896C74.6083 4.62933 74.0909 4.496 73.5043 4.496C72.9283 4.496 72.4109 4.62933 71.9523 4.896C71.4936 5.16267 71.1363 5.536 70.8803 6.016C70.6243 6.496 70.4963 7.04533 70.4963 7.664V7.84C70.4963 8.48 70.6349 9.04533 70.9123 9.536C71.2003 10.016 71.5949 10.3947 72.0963 10.672C72.6083 10.9387 73.1896 11.072 73.8403 11.072C74.3523 11.072 74.8269 10.9813 75.2643 10.8C75.7123 10.6187 76.0963 10.3413 76.4163 9.968L77.0563 10.704C76.6829 11.152 76.2136 11.4933 75.6483 11.728C75.0936 11.9627 74.4803 12.08 73.8083 12.08Z" fill="white"/>
</svg>
